<svg xmlns="http://www.w3.org/2000/svg" fill="currentColor" viewBox="0 0 32 32">
  <defs>
    <style>
      .cls-1 {
        fill: none
      }
    </style>
  </defs>
  <path
    d="m29.4 14.6-12-12a2 2 0 0 0-2.8 0l-12 12a2 2 0 0 0 0 2.8l12 12a2 2 0 0 0 2.8 0l12-12a2 2 0 0 0 0-2.8ZM16 24a1.5 1.5 0 1 1 1.5-1.5A1.5 1.5 0 0 1 16 24Zm1.1-6.8v2H15V15H17a1.9 1.9 0 0 0 0-3.8h-2a1.9 1.9 0 0 0-1.9 2v.4H11v-.5A4.1 4.1 0 0 1 15 9h2a4.1 4.1 0 0 1 .1 8.2Z" />
  <path id="inner-path"
    d="M16 21a1.5 1.5 0 1 1-1.5 1.5A1.5 1.5 0 0 1 16 21Zm1.1-3.8A4.1 4.1 0 0 0 17 9h-2a4.1 4.1 0 0 0-4.1 4.1v.5H13v-.5a1.9 1.9 0 0 1 1.9-1.8h2a1.9 1.9 0 0 1 0 3.7h-2.1v4.1H17Z"
    class="cls-1" />
  <path id="_Transparent_Rectangle_" d="M0 0h32v32H0z" class="cls-1" data-name="&lt;Transparent Rectangle&gt;" />
</svg>